{
	"asset":{
		"generator":"Khronos glTF Blender I/O v4.0.44",
		"version":"2.0"
	},
	"scene":0,
	"scenes":[
		{
			"name":"Scene",
			"nodes":[
				0
			]
		}
	],
	"nodes":[
		{
			"mesh":0,
			"name":"Anvil"
		}
	],
	"materials":[
		{
			"doubleSided":true,
			"name":"Material.001",
			"pbrMetallicRoughness":{
				"metallicFactor":0,
				"roughnessFactor":0.5
			}
		}
	],
	"meshes":[
		{
			"name":"Plane",
			"primitives":[
				{
					"attributes":{
						"POSITION":0,
						"NORMAL":1,
						"TEXCOORD_0":2
					},
					"indices":3,
					"material":0
				},
				{
					"attributes":{
						"POSITION":4,
						"NORMAL":5,
						"TEXCOORD_0":6
					},
					"indices":7,
					"material":0
				}
			]
		}
	],
	"accessors":[
		{
			"bufferView":0,
			"componentType":5126,
			"count":496,
			"max":[
				1,
				1.8732688426971436,
				1.773672342300415
			],
			"min":[
				-0.005524009466171265,
				0.3585054278373718,
				-1.7515978813171387
			],
			"type":"VEC3"
		},
		{
			"bufferView":1,
			"componentType":5126,
			"count":496,
			"type":"VEC3"
		},
		{
			"bufferView":2,
			"componentType":5126,
			"count":496,
			"type":"VEC2"
		},
		{
			"bufferView":3,
			"componentType":5123,
			"count":1740,
			"type":"SCALAR"
		},
		{
			"bufferView":4,
			"componentType":5126,
			"count":51,
			"max":[
				1,
				0.8133695125579834,
				0.6903848648071289
			],
			"min":[
				0.3888658881187439,
				0.3585054278373718,
				-0.6903848648071289
			],
			"type":"VEC3"
		},
		{
			"bufferView":5,
			"componentType":5126,
			"count":51,
			"type":"VEC3"
		},
		{
			"bufferView":6,
			"componentType":5126,
			"count":51,
			"type":"VEC2"
		},
		{
			"bufferView":7,
			"componentType":5123,
			"count":192,
			"type":"SCALAR"
		}
	],
	"bufferViews":[
		{
			"buffer":0,
			"byteLength":5952,
			"byteOffset":0,
			"target":34962
		},
		{
			"buffer":0,
			"byteLength":5952,
			"byteOffset":5952,
			"target":34962
		},
		{
			"buffer":0,
			"byteLength":3968,
			"byteOffset":11904,
			"target":34962
		},
		{
			"buffer":0,
			"byteLength":3480,
			"byteOffset":15872,
			"target":34963
		},
		{
			"buffer":0,
			"byteLength":612,
			"byteOffset":19352,
			"target":34962
		},
		{
			"buffer":0,
			"byteLength":612,
			"byteOffset":19964,
			"target":34962
		},
		{
			"buffer":0,
			"byteLength":408,
			"byteOffset":20576,
			"target":34962
		},
		{
			"buffer":0,
			"byteLength":384,
			"byteOffset":20984,
			"target":34963
		}
	],
	"buffers":[
		{
			"byteLength":21368,
			"uri":"Anvil.bin"
		}
	]
}
