{
	"asset":{
		"generator":"Khronos glTF Blender I/O v4.0.44",
		"version":"2.0"
	},
	"extensionsUsed":[
		"KHR_materials_emissive_strength"
	],
	"scene":0,
	"scenes":[
		{
			"name":"Scene",
			"nodes":[
				0,
				1,
				2,
				3,
				4
			]
		}
	],
	"nodes":[
		{
			"mesh":0,
			"name":"Cube",
			"scale":[
				0.2024603635072708,
				0.17023968696594238,
				0.1185435801744461
			],
			"translation":[
				0.001956305233761668,
				2.0526113510131836,
				-0.013039792887866497
			]
		},
		{
			"mesh":1,
			"name":"Plane",
			"scale":[
				15.845677375793457,
				15.845677375793457,
				15.845677375793457
			]
		},
		{
			"mesh":2,
			"name":"Cube.001",
			"scale":[
				13.72299575805664,
				13.72299575805664,
				13.72299575805664
			],
			"translation":[
				0,
				0,
				-12.023835182189941
			]
		},
		{
			"mesh":3,
			"name":"Cube.002",
			"scale":[
				3.67659854888916,
				0.004439187701791525,
				0.11700855195522308
			],
			"translation":[
				0.001956305233761668,
				2.0526113510131836,
				-0.013039792887866497
			]
		},
		{
			"mesh":4,
			"name":"Cube.003",
			"rotation":[
				0,
				-1,
				0,
				1.6292068494294654e-07
			],
			"scale":[
				3.67659854888916,
				0.004439187701791525,
				0.11700855195522308
			],
			"translation":[
				-0.10075704753398895,
				1.9835536479949951,
				-0.013039792887866497
			]
		}
	],
	"materials":[
		{
			"doubleSided":true,
			"name":"Black",
			"pbrMetallicRoughness":{
				"baseColorFactor":[
					0,
					0,
					0,
					1
				],
				"metallicFactor":0,
				"roughnessFactor":0.5
			}
		},
		{
			"doubleSided":true,
			"emissiveFactor":[
				1,
				0.7843143939971924,
				0.04183556139469147
			],
			"extensions":{
				"KHR_materials_emissive_strength":{
					"emissiveStrength":1.9999992847442627
				}
			},
			"name":"Transparent Light",
			"pbrMetallicRoughness":{
				"baseColorFactor":[
					0,
					0,
					0,
					1
				]
			}
		}
	],
	"meshes":[
		{
			"name":"Cube.001",
			"primitives":[
				{
					"attributes":{
						"POSITION":0,
						"NORMAL":1,
						"TEXCOORD_0":2
					},
					"indices":3,
					"material":0
				},
				{
					"attributes":{
						"POSITION":4,
						"NORMAL":5,
						"TEXCOORD_0":6
					},
					"indices":7,
					"material":1
				}
			]
		},
		{
			"name":"Plane",
			"primitives":[
				{
					"attributes":{
						"POSITION":8,
						"NORMAL":9,
						"TEXCOORD_0":10
					},
					"indices":11
				}
			]
		},
		{
			"name":"Cube.002",
			"primitives":[
				{
					"attributes":{
						"POSITION":12,
						"NORMAL":13,
						"TEXCOORD_0":14
					},
					"indices":15
				}
			]
		},
		{
			"name":"Cube.003",
			"primitives":[
				{
					"attributes":{
						"POSITION":16,
						"NORMAL":17,
						"TEXCOORD_0":18
					},
					"indices":19,
					"material":0
				}
			]
		},
		{
			"name":"Cube.004",
			"primitives":[
				{
					"attributes":{
						"POSITION":20,
						"NORMAL":21,
						"TEXCOORD_0":22
					},
					"indices":19,
					"material":0
				}
			]
		}
	],
	"accessors":[
		{
			"bufferView":0,
			"componentType":5126,
			"count":823,
			"max":[
				1.6432113647460938,
				8.412537574768066,
				2.3551125526428223
			],
			"min":[
				-1.6429712772369385,
				-12.057184219360352,
				-2.364157199859619
			],
			"type":"VEC3"
		},
		{
			"bufferView":1,
			"componentType":5126,
			"count":823,
			"type":"VEC3"
		},
		{
			"bufferView":2,
			"componentType":5126,
			"count":823,
			"type":"VEC2"
		},
		{
			"bufferView":3,
			"componentType":5123,
			"count":3504,
			"type":"SCALAR"
		},
		{
			"bufferView":4,
			"componentType":5126,
			"count":24,
			"max":[
				1.19475257396698,
				6.010676860809326,
				1.7039694786071777
			],
			"min":[
				-1.1945124864578247,
				3.7315073013305664,
				-1.7130132913589478
			],
			"type":"VEC3"
		},
		{
			"bufferView":5,
			"componentType":5126,
			"count":24,
			"type":"VEC3"
		},
		{
			"bufferView":6,
			"componentType":5126,
			"count":24,
			"type":"VEC2"
		},
		{
			"bufferView":7,
			"componentType":5123,
			"count":48,
			"type":"SCALAR"
		},
		{
			"bufferView":8,
			"componentType":5126,
			"count":4,
			"max":[
				1,
				0,
				1
			],
			"min":[
				-1,
				0,
				-1
			],
			"type":"VEC3"
		},
		{
			"bufferView":9,
			"componentType":5126,
			"count":4,
			"type":"VEC3"
		},
		{
			"bufferView":10,
			"componentType":5126,
			"count":4,
			"type":"VEC2"
		},
		{
			"bufferView":11,
			"componentType":5123,
			"count":6,
			"type":"SCALAR"
		},
		{
			"bufferView":12,
			"componentType":5126,
			"count":24,
			"max":[
				1,
				1,
				1
			],
			"min":[
				-1,
				-1,
				-1
			],
			"type":"VEC3"
		},
		{
			"bufferView":13,
			"componentType":5126,
			"count":24,
			"type":"VEC3"
		},
		{
			"bufferView":14,
			"componentType":5126,
			"count":24,
			"type":"VEC2"
		},
		{
			"bufferView":15,
			"componentType":5123,
			"count":36,
			"type":"SCALAR"
		},
		{
			"bufferView":16,
			"componentType":5126,
			"count":36,
			"max":[
				0.16249139606952667,
				3.3523831367492676,
				0.22865809500217438
			],
			"min":[
				-0.19234001636505127,
				-9.51469612121582,
				-0.23770388960838318
			],
			"type":"VEC3"
		},
		{
			"bufferView":17,
			"componentType":5126,
			"count":36,
			"type":"VEC3"
		},
		{
			"bufferView":18,
			"componentType":5126,
			"count":36,
			"type":"VEC2"
		},
		{
			"bufferView":19,
			"componentType":5123,
			"count":60,
			"type":"SCALAR"
		},
		{
			"bufferView":20,
			"componentType":5126,
			"count":36,
			"max":[
				0.16249139606952667,
				3.3523831367492676,
				0.22865809500217438
			],
			"min":[
				-0.19234001636505127,
				-9.51469612121582,
				-0.23770388960838318
			],
			"type":"VEC3"
		},
		{
			"bufferView":21,
			"componentType":5126,
			"count":36,
			"type":"VEC3"
		},
		{
			"bufferView":22,
			"componentType":5126,
			"count":36,
			"type":"VEC2"
		}
	],
	"bufferViews":[
		{
			"buffer":0,
			"byteLength":9876,
			"byteOffset":0,
			"target":34962
		},
		{
			"buffer":0,
			"byteLength":9876,
			"byteOffset":9876,
			"target":34962
		},
		{
			"buffer":0,
			"byteLength":6584,
			"byteOffset":19752,
			"target":34962
		},
		{
			"buffer":0,
			"byteLength":7008,
			"byteOffset":26336,
			"target":34963
		},
		{
			"buffer":0,
			"byteLength":288,
			"byteOffset":33344,
			"target":34962
		},
		{
			"buffer":0,
			"byteLength":288,
			"byteOffset":33632,
			"target":34962
		},
		{
			"buffer":0,
			"byteLength":192,
			"byteOffset":33920,
			"target":34962
		},
		{
			"buffer":0,
			"byteLength":96,
			"byteOffset":34112,
			"target":34963
		},
		{
			"buffer":0,
			"byteLength":48,
			"byteOffset":34208,
			"target":34962
		},
		{
			"buffer":0,
			"byteLength":48,
			"byteOffset":34256,
			"target":34962
		},
		{
			"buffer":0,
			"byteLength":32,
			"byteOffset":34304,
			"target":34962
		},
		{
			"buffer":0,
			"byteLength":12,
			"byteOffset":34336,
			"target":34963
		},
		{
			"buffer":0,
			"byteLength":288,
			"byteOffset":34348,
			"target":34962
		},
		{
			"buffer":0,
			"byteLength":288,
			"byteOffset":34636,
			"target":34962
		},
		{
			"buffer":0,
			"byteLength":192,
			"byteOffset":34924,
			"target":34962
		},
		{
			"buffer":0,
			"byteLength":72,
			"byteOffset":35116,
			"target":34963
		},
		{
			"buffer":0,
			"byteLength":432,
			"byteOffset":35188,
			"target":34962
		},
		{
			"buffer":0,
			"byteLength":432,
			"byteOffset":35620,
			"target":34962
		},
		{
			"buffer":0,
			"byteLength":288,
			"byteOffset":36052,
			"target":34962
		},
		{
			"buffer":0,
			"byteLength":120,
			"byteOffset":36340,
			"target":34963
		},
		{
			"buffer":0,
			"byteLength":432,
			"byteOffset":36460,
			"target":34962
		},
		{
			"buffer":0,
			"byteLength":432,
			"byteOffset":36892,
			"target":34962
		},
		{
			"buffer":0,
			"byteLength":288,
			"byteOffset":37324,
			"target":34962
		}
	],
	"buffers":[
		{
			"byteLength":37612,
			"uri":"PostLamp.bin"
		}
	]
}
